<?xml version="1.0" encoding="iso-8859-1"?>
<!-- Generator: Adobe Illustrator 19.0.0, SVG Export Plug-In . SVG Version: 6.00 Build 0)  -->
<svg version="1.1" id="Layer_1" xmlns="http://www.w3.org/2000/svg" xmlns:xlink="http://www.w3.org/1999/xlink" x="0px" y="0px"
	 viewBox="0 0 512 512" style="enable-background:new 0 0 512 512;" xml:space="preserve">
<path style="fill:#FAD24D;" d="M256,0c141.385,0,256,114.615,256,256S397.385,512,256,512S0,397.385,0,256S114.615,0,256,0z"/>
<path style="fill:#FF5B62;" d="M168.636,98.055c-20.657,138.295,67.516,103.486,71.873,136.858v42.176
	c-4.356,33.375-92.529-1.435-71.873,136.861H256h87.367c20.654-138.295-67.521-103.486-71.873-136.861v-42.176
	c4.352-33.373,92.526,1.437,71.873-136.858H256C256,98.055,168.636,98.055,168.636,98.055z"/>
<path style="fill:#ED4C54;" d="M271.497,253.165v-18.253c4.352-33.373,92.526,1.437,71.873-136.858h-17.815
	c0,0,36.484,94.182-39.12,114.032c-20.317,5.336-18.203,19.759-18.187,41.079v0.926c-0.042,21.115-2.007,35.772,18.187,41.071
	c75.603,19.851,39.12,118.785,39.12,118.785h17.815c20.654-138.295-67.521-108.236-71.873-141.61v-18.245V253.165z"/>
<path style="fill:#FEFEFE;" d="M119.444,86.444h273.113v11.612H371.35v315.891h21.207v11.612H119.444v-11.612h21.207V98.055h-21.207
	V86.444z M361.012,98.055L361.012,98.055H150.985v315.891h210.027L361.012,98.055L361.012,98.055z"/>
<path style="fill:#FFFFFF;" d="M180.93,151.069c-0.079,58.496,46.912,46.829,69.048,72.494c4.018,2.982,8.031,2.84,12.05,0
	c22.138-25.669,65.691-10.565,69.048-72.494H180.933H180.93z M256.264,230.344L256.264,230.344c3.446,0,6.243,2.797,6.243,6.243
	s-2.797,6.24-6.243,6.24c-3.446,0-6.24-2.797-6.24-6.24C250.025,233.141,252.821,230.344,256.264,230.344z M256.264,299.775
	L256.264,299.775c3.446,0,6.243,2.797,6.243,6.243c0,3.444-2.797,6.24-6.243,6.24c-3.446,0-6.24-2.797-6.24-6.24
	C250.025,302.571,252.821,299.775,256.264,299.775z M256.264,276.633L256.264,276.633c3.446,0,6.243,2.797,6.243,6.24
	c0,3.446-2.797,6.243-6.243,6.243c-3.446,0-6.24-2.797-6.24-6.243C250.025,279.426,252.821,276.633,256.264,276.633z
	 M256.264,253.49L256.264,253.49c3.446,0,6.243,2.797,6.243,6.24c0,3.446-2.797,6.243-6.243,6.243c-3.446,0-6.24-2.794-6.24-6.243
	C250.025,256.283,252.821,253.49,256.264,253.49z M183.867,406.621L183.867,406.621h144.268
	C312.211,304.987,199.553,303.558,183.867,406.621z"/>
<g>
</g>
<g>
</g>
<g>
</g>
<g>
</g>
<g>
</g>
<g>
</g>
<g>
</g>
<g>
</g>
<g>
</g>
<g>
</g>
<g>
</g>
<g>
</g>
<g>
</g>
<g>
</g>
<g>
</g>
</svg>
